<?xml version="1.0"?>
<svg xmlns="http://www.w3.org/2000/svg" height="512px" viewBox="-64 0 455 455" width="512px"><g><path d="m277 0h-227c-27.609375.0117188-49.9882812 22.390625-50 50v355c.0117188 27.609375 22.390625 49.988281 50 50h227c27.609375-.011719 49.988281-22.390625 50-50v-355c-.011719-27.609375-22.390625-49.9882812-50-50zm30 405c-.046875 16.546875-13.453125 29.953125-30 30h-227c-16.546875-.046875-29.953125-13.453125-30-30v-355c.046875-16.546875 13.453125-29.953125 30-30h227c16.546875.046875 29.953125 13.453125 30 30zm0 0" data-original="#000000" class="active-path" data-old_color="#000000" fill="#5A5DC0"/><path d="m189 165h-51c-5.515625.015625-9.984375 4.484375-10 10v45c.015625 5.515625 4.484375 9.984375 10 10h51c5.515625-.015625 9.984375-4.484375 10-10v-45c-.015625-5.515625-4.484375-9.984375-10-10zm-10 45h-31v-25h31zm0 0" data-original="#000000" class="active-path" data-old_color="#000000" fill="#5A5DC0"/><path d="m99 165h-51c-5.515625.015625-9.984375 4.484375-10 10v45c.015625 5.515625 4.484375 9.984375 10 10h51c5.515625-.015625 9.984375-4.484375 10-10v-45c-.015625-5.515625-4.484375-9.984375-10-10zm-10 45h-31v-25h31zm0 0" data-original="#000000" class="active-path" data-old_color="#000000" fill="#5A5DC0"/><path d="m279 165h-51c-5.515625.015625-9.984375 4.484375-10 10v45c.015625 5.515625 4.484375 9.984375 10 10h51c5.515625-.015625 9.984375-4.484375 10-10v-45c-.015625-5.515625-4.484375-9.984375-10-10zm-10 45h-31v-25h31zm0 0" data-original="#000000" class="active-path" data-old_color="#000000" fill="#5A5DC0"/><path d="m189 255h-51c-5.515625.015625-9.984375 4.484375-10 10v45c.015625 5.515625 4.484375 9.984375 10 10h51c5.515625-.015625 9.984375-4.484375 10-10v-45c-.015625-5.515625-4.484375-9.984375-10-10zm-10 45h-31v-25h31zm0 0" data-original="#000000" class="active-path" data-old_color="#000000" fill="#5A5DC0"/><path d="m99 255h-51c-5.515625.015625-9.984375 4.484375-10 10v45c.015625 5.515625 4.484375 9.984375 10 10h51c5.515625-.015625 9.984375-4.484375 10-10v-45c-.015625-5.515625-4.484375-9.984375-10-10zm-10 45h-31v-25h31zm0 0" data-original="#000000" class="active-path" data-old_color="#000000" fill="#5A5DC0"/><path d="m279 255h-51c-5.515625.015625-9.984375 4.484375-10 10v45c.015625 5.515625 4.484375 9.984375 10 10h51c5.515625-.015625 9.984375-4.484375 10-10v-45c-.015625-5.515625-4.484375-9.984375-10-10zm-10 45h-31v-25h31zm0 0" data-original="#000000" class="active-path" data-old_color="#000000" fill="#5A5DC0"/><path d="m189 345h-51c-5.515625.015625-9.984375 4.484375-10 10v45c.015625 5.515625 4.484375 9.984375 10 10h51c5.515625-.015625 9.984375-4.484375 10-10v-45c-.015625-5.515625-4.484375-9.984375-10-10zm-10 45h-31v-25h31zm0 0" data-original="#000000" class="active-path" data-old_color="#000000" fill="#5A5DC0"/><path d="m99 345h-51c-5.515625.015625-9.984375 4.484375-10 10v45c.015625 5.515625 4.484375 9.984375 10 10h51c5.515625-.015625 9.984375-4.484375 10-10v-45c-.015625-5.515625-4.484375-9.984375-10-10zm-10 45h-31v-25h31zm0 0" data-original="#000000" class="active-path" data-old_color="#000000" fill="#5A5DC0"/><path d="m279 345h-51c-5.515625.015625-9.984375 4.484375-10 10v45c.015625 5.515625 4.484375 9.984375 10 10h51c5.515625-.015625 9.984375-4.484375 10-10v-45c-.015625-5.515625-4.484375-9.984375-10-10zm-10 45h-31v-25h31zm0 0" data-original="#000000" class="active-path" data-old_color="#000000" fill="#5A5DC0"/><path d="m279 45h-231c-5.515625.015625-9.984375 4.484375-10 10v75c.015625 5.515625 4.484375 9.984375 10 10h231c5.515625-.015625 9.984375-4.484375 10-10v-75c-.015625-5.515625-4.484375-9.984375-10-10zm-10 75h-211v-55h211zm0 0" data-original="#000000" class="active-path" data-old_color="#000000" fill="#5A5DC0"/></g> </svg>
